<?xml version="1.0" encoding="UTF-8" standalone="no"?>
<!-- Generator: Adobe Illustrator 18.1.0, SVG Export Plug-In . SVG Version: 6.00 Build 0)  -->

<svg
   xmlns:dc="http://purl.org/dc/elements/1.1/"
   xmlns:cc="http://creativecommons.org/ns#"
   xmlns:rdf="http://www.w3.org/1999/02/22-rdf-syntax-ns#"
   xmlns:svg="http://www.w3.org/2000/svg"
   xmlns="http://www.w3.org/2000/svg"
   xmlns:sodipodi="http://sodipodi.sourceforge.net/DTD/sodipodi-0.dtd"
   xmlns:inkscape="http://www.inkscape.org/namespaces/inkscape"
   version="1.1"
   id="Layer_1"
   x="0px"
   y="0px"
   width="72px"
   height="72px"
   viewBox="0 0 72 72"
   enable-background="new 0 0 72 72"
   xml:space="preserve"
   sodipodi:docname="Fluorite.svg"
   inkscape:version="0.92.4 (5da689c313, 2019-01-14)"
   inkscape:export-filename="C:\Projects\Fluorite\Images\Fluorite.160.png"
   inkscape:export-xdpi="187.77"
   inkscape:export-ydpi="187.77"><metadata
   id="metadata3769"><rdf:RDF><cc:Work
       rdf:about=""><dc:format>image/svg+xml</dc:format><dc:type
         rdf:resource="http://purl.org/dc/dcmitype/StillImage" /><dc:title></dc:title></cc:Work></rdf:RDF></metadata><defs
   id="defs3767"><filter
     style="color-interpolation-filters:sRGB;"
     inkscape:label="Color Shift"
     id="filter6751"><feColorMatrix
       type="hueRotate"
       values="360"
       result="color1"
       id="feColorMatrix6747" /><feColorMatrix
       type="saturate"
       values="0.166667"
       result="color2"
       id="feColorMatrix6749" /></filter><filter
     style="color-interpolation-filters:sRGB;"
     inkscape:label="Color Shift"
     id="filter6757"><feColorMatrix
       type="hueRotate"
       values="360"
       result="color1"
       id="feColorMatrix6753" /><feColorMatrix
       type="saturate"
       values="0.166667"
       result="color2"
       id="feColorMatrix6755" /></filter><filter
     style="color-interpolation-filters:sRGB;"
     inkscape:label="Color Shift"
     id="filter6763"><feColorMatrix
       type="hueRotate"
       values="360"
       result="color1"
       id="feColorMatrix6759" /><feColorMatrix
       type="saturate"
       values="0.166667"
       result="color2"
       id="feColorMatrix6761" /></filter><filter
     style="color-interpolation-filters:sRGB;"
     inkscape:label="Color Shift"
     id="filter6769"><feColorMatrix
       type="hueRotate"
       values="360"
       result="color1"
       id="feColorMatrix6765" /><feColorMatrix
       type="saturate"
       values="0.166667"
       result="color2"
       id="feColorMatrix6767" /></filter><filter
     style="color-interpolation-filters:sRGB;"
     inkscape:label="Color Shift"
     id="filter7321"><feColorMatrix
       type="hueRotate"
       values="213"
       result="color1"
       id="feColorMatrix7317" /><feColorMatrix
       type="saturate"
       values="0.77"
       result="color2"
       id="feColorMatrix7319" /></filter><filter
     style="color-interpolation-filters:sRGB;"
     inkscape:label="Color Shift"
     id="filter7327"><feColorMatrix
       type="hueRotate"
       values="213"
       result="color1"
       id="feColorMatrix7323" /><feColorMatrix
       type="saturate"
       values="0.77"
       result="color2"
       id="feColorMatrix7325" /></filter><filter
     style="color-interpolation-filters:sRGB;"
     inkscape:label="Color Shift"
     id="filter7333"><feColorMatrix
       type="hueRotate"
       values="213"
       result="color1"
       id="feColorMatrix7329" /><feColorMatrix
       type="saturate"
       values="0.77"
       result="color2"
       id="feColorMatrix7331" /></filter><filter
     style="color-interpolation-filters:sRGB;"
     inkscape:label="Color Shift"
     id="filter7339"><feColorMatrix
       type="hueRotate"
       values="213"
       result="color1"
       id="feColorMatrix7335" /><feColorMatrix
       type="saturate"
       values="0.77"
       result="color2"
       id="feColorMatrix7337" /></filter><filter
     style="color-interpolation-filters:sRGB;"
     inkscape:label="Color Shift"
     id="filter7345"><feColorMatrix
       type="hueRotate"
       values="213"
       result="color1"
       id="feColorMatrix7341" /><feColorMatrix
       type="saturate"
       values="0.77"
       result="color2"
       id="feColorMatrix7343" /></filter><filter
     style="color-interpolation-filters:sRGB;"
     inkscape:label="Color Shift"
     id="filter7351"><feColorMatrix
       type="hueRotate"
       values="213"
       result="color1"
       id="feColorMatrix7347" /><feColorMatrix
       type="saturate"
       values="0.77"
       result="color2"
       id="feColorMatrix7349" /></filter><filter
     style="color-interpolation-filters:sRGB;"
     inkscape:label="Color Shift"
     id="filter7357"><feColorMatrix
       type="hueRotate"
       values="213"
       result="color1"
       id="feColorMatrix7353" /><feColorMatrix
       type="saturate"
       values="0.77"
       result="color2"
       id="feColorMatrix7355" /></filter></defs><sodipodi:namedview
   pagecolor="#ffffff"
   bordercolor="#666666"
   borderopacity="1"
   objecttolerance="10"
   gridtolerance="10"
   guidetolerance="10"
   inkscape:pageopacity="0"
   inkscape:pageshadow="2"
   inkscape:window-width="1113"
   inkscape:window-height="762"
   id="namedview3765"
   showgrid="false"
   inkscape:zoom="9.3055556"
   inkscape:cx="18.107463"
   inkscape:cy="36"
   inkscape:window-x="5231"
   inkscape:window-y="565"
   inkscape:window-maximized="0"
   inkscape:current-layer="Layer_1" />
<path
   fill="#0096D1"
   d="M26.1,49.8l9.6,21.8c0,0.1-0.1,0.1-0.1,0.1L16.9,49.8H26.1z M17.3,29.7l-17.2,0c0,0.7,1.1,1.6,1.1,1.6  l15.7,18.5l6.3-6.7L17.3,29.7z"
   id="path3742"
   style="filter:url(#filter6763)" />
<path
   fill="#76DFFF"
   d="M71.5,30.5c-0.5,0.5-1.3,0.5-1.8,0c-0.2-0.2-0.4-0.6-0.4-0.9H54.6l-9.2-10L55,9.5l16.3,19.1  c0,0,0,0.1,0.1,0.1c0,0,0,0,0.1,0C72,29.3,72,30.1,71.5,30.5z M35.9,29.7l9.4-10L35.9,9.5l-9.4,10.2L35.9,29.7z"
   id="path3744"
   style="filter:url(#filter6751)" />
<path
   fill="#59CAFC"
   d="M36.3,71.7c-0.1,0.1-0.2,0-0.1-0.1l9.6-21.8H55L36.3,71.7z M48.7,43.1l6.3,6.7l16.4-19.2  c0,0,0.4-0.6,0.4-0.9H54.6L48.7,43.1z"
   id="path3746"
   style="filter:url(#filter6769)" />
<polygon
   fill="#27C7FF"
   points="26.5,19.7 17.3,29.7 35.9,29.7 "
   id="polygon3748"
   style="filter:url(#filter7345)" />
<polygon
   fill="#B0E9FF"
   points="45.4,19.7 35.9,29.7 54.6,29.7 "
   id="polygon3750"
   style="filter:url(#filter7351)" />
<path
   fill="#00B1FF"
   d="M26.5,19.7l-9.2,10H0.1c0,0,0.1-0.6,0.5-1l15.8-18.5c0.1-0.1,0.2-0.2,0.3-0.2c0.2-0.3,0.5-0.4,0.9-0.4  c0.7,0,1.2,0.6,1.2,1.2c0,0.2-0.1,0.4-0.2,0.6L26.5,19.7z M35.9,29.7l12.8,13.5l5.9-13.5H35.9z M17.3,29.7l5.9,13.5l12.8-13.5H17.3z   M26.1,49.8l9.7,22c0.1,0.1,0.2,0.1,0.3,0l9.7-22H26.1z M48.7,43.1l-2.9,6.7H55l0,0L48.7,43.1z"
   id="path3752"
   style="filter:url(#filter6757)" />
<path
   fill="#59CAFC"
   d="M45.4,19.7L35.9,9.5h0.7H55L45.4,19.7z M35.9,9.5h-0.7H18c-0.4,0-1.2,0-0.9,0.3l9.4,9.9L35.9,9.5z"
   id="path3754"
   style="filter:url(#filter7339)" />
<polygon
   fill="#0074A8"
   points="23.2,43.1 16.9,49.8 16.9,49.8 26.1,49.8 "
   id="polygon3756"
   style="filter:url(#filter7333)" />
<polygon
   fill="#0096D1"
   points="23.2,43.1 26.1,49.8 45.8,49.8 48.7,43.1 35.9,29.7 "
   id="polygon3758"
   style="filter:url(#filter7357)" />
<path
   fill="#FFFFFF"
   d="M52.7,29.9c2.7,0.7,4.8,2.8,5.5,5.5c0.1,0.3,0.4,0.3,0.5,0c0.7-2.7,2.8-4.8,5.5-5.5c0.3-0.1,0.3-0.4,0-0.5  c-2.7-0.7-4.8-2.8-5.5-5.5c-0.1-0.3-0.4-0.3-0.5,0c-0.7,2.7-2.8,4.8-5.5,5.5C52.4,29.5,52.4,29.8,52.7,29.9z"
   id="path3760"
   style="filter:url(#filter7321)" />
<path
   fill="#B0E9FF"
   d="M42.6,3.6C44,4,45.1,5.1,45.5,6.5c0,0.1,0.2,0.1,0.2,0c0.4-1.4,1.5-2.5,2.9-2.9c0.1,0,0.1-0.2,0-0.2  c-1.4-0.4-2.5-1.5-2.9-2.9c0-0.1-0.2-0.1-0.2,0C45.1,1.9,44,3,42.6,3.4C42.5,3.4,42.5,3.6,42.6,3.6z"
   id="path3762"
   style="filter:url(#filter7327)" />
</svg>